# xmcd
#
# Track frame offsets:
#	150
#	14811
#	32468
#	50238
#	60006
#	91195
#	105600
#	123154
#	141238
#	157982
#	185450
#	207995
#	230874
#	250827
#
# Disc length: 3379 seconds
#
# Revision: 0
# Processed by: cddbd v1.5.1PL0 Copyright (c) Steve Scherf et al.
# Submitted via: audiograbber 1.83.01
#
DISCID=bb0d310e
DTITLE=Rick Moore and Mr. Lucky - Satisfied
DYEAR=2000
DGENRE=Blues
TTITLE0=Satisfied Man
TTITLE1=Better Off With The Blues
TTITLE2=Take It Down To Memphis
TTITLE3=Good Man Gone Bad
TTITLE4=(I Wanta) Get Funky
TTITLE5=Hello Darkness
TTITLE6=Come And Go With Me
TTITLE7=She's Allright
TTITLE8=Act Of Faith
TTITLE9=Dark Before Daylight
TTITLE10=Memphis Stripper
TTITLE11=Sell My Monkey
TTITLE12=Fire In The Delta
TTITLE13=Daten-CD
EXTD=
EXTT0=
EXTT1=
EXTT2=
EXTT3=
EXTT4=
EXTT5=
EXTT6=
EXTT7=
EXTT8=
EXTT9=
EXTT10=
EXTT11=
EXTT12=
EXTT13=Music Network Katalog
PLAYORDER=
